<svg width="109" height="51" viewBox="0 0 109 51" fill="none" xmlns="http://www.w3.org/2000/svg">
<g clip-path="url(#clip0_217_3164)">
<path d="M40.5097 39.1697C40.5435 41.6978 39.6832 44.1565 38.0807 46.1121C36.4781 48.0677 34.2364 49.3943 31.7509 49.858C31.0306 49.9891 30.2995 50.0517 29.5674 50.045C23.3449 50.045 17.1224 50.045 10.8998 50.045C8.32209 50.0944 5.81443 49.2042 3.84483 47.5405C1.88152 45.9321 0.574192 43.6612 0.169166 41.1557C0.0586567 40.4699 0.00438721 39.7762 0.00690008 39.0815C0.00690008 33.0847 0.00690008 27.1056 0.00690008 21.1159C-0.0202539 20.3423 0.00922062 19.5677 0.0950878 18.7983C0.375031 16.7013 1.27547 14.7358 2.68075 13.1543C2.86771 12.9391 3.06878 12.7381 3.26984 12.537C6.37876 9.43514 9.48767 6.32858 12.5966 3.21732C14.5154 1.26226 17.109 0.114767 19.8464 0.00983799C22.5837 -0.095091 25.2576 0.850484 27.3204 2.65291C27.5638 2.86104 27.7966 3.09033 28.0259 3.31961L37.2927 12.5829C38.3971 13.6607 39.2567 14.9636 39.813 16.4031C40.3693 17.8426 40.6094 19.3849 40.5168 20.9254C40.5168 21.0101 40.5168 21.0983 40.5168 21.1864C40.5062 24.0896 40.4992 36.0796 40.5097 39.1697ZM8.33182 29.8253V39.0709C8.33182 39.2402 8.33182 39.406 8.35298 39.5753C8.41291 40.1421 8.67531 40.6682 9.09199 41.057C9.50867 41.4458 10.0516 41.6712 10.6212 41.6919C12.967 41.6919 15.3128 41.6919 17.6586 41.6919C17.8138 41.6919 17.8526 41.7307 17.849 41.8859C17.849 43.3463 17.849 44.8031 17.849 46.2635C17.849 46.4328 17.8984 46.4681 18.0572 46.454C18.7625 46.4034 19.4554 46.2415 20.1102 45.9743C21.948 45.1876 23.1967 43.8754 23.6835 41.9035C23.7259 41.7412 23.7752 41.6919 23.9481 41.6919C25.8318 41.6919 27.719 41.6919 29.5921 41.6919C29.7535 41.6972 29.9151 41.6901 30.0754 41.6707C30.6666 41.5986 31.2092 41.3068 31.5953 40.8533C31.9815 40.3999 32.1831 39.8178 32.1601 39.2226C32.1601 33.0941 32.1601 26.968 32.1601 20.8443C32.1601 20.7279 32.1601 20.6079 32.1601 20.4915C32.1932 20.1288 32.1438 19.7633 32.0155 19.4224C31.8872 19.0815 31.6834 18.7741 31.4194 18.5232L21.9551 9.04476C21.7357 8.81995 21.4738 8.64098 21.1847 8.51824C20.8956 8.39551 20.5849 8.33146 20.2708 8.32982C19.9567 8.32818 19.6454 8.38898 19.355 8.50868C19.0646 8.62839 18.8009 8.80462 18.5792 9.02712L9.0091 18.6114C8.64748 18.9591 8.41803 19.4217 8.36004 19.9201C8.33355 20.2297 8.32412 20.5406 8.33182 20.8513V29.8253Z" fill="#FF6600"/>
</g>
<g clip-path="url(#clip1_217_3164)">
<path d="M52.0031 32.4369H60.6348V27.5481H52.0031V23.6315H62.018V18.3691H46.21V41.9564H62.35V36.5018H52.0031V32.4369Z" fill="#FF6600"/>
<path d="M75.4854 35.8867C75.1866 34.6123 73.9527 30.8056 73.7259 30.0256L70.2511 18.3638H63.7607L71.8667 41.9565H78.8052L86.878 18.3638H80.6146C80.6146 18.3638 76.0055 33.607 75.4854 35.8867Z" fill="#FF6600"/>
<path d="M106.537 20.6983C104.896 18.8893 102.043 17.9866 97.9777 17.9902C94.0934 17.9902 91.2789 18.9424 89.5342 20.8467C87.7894 22.7509 86.9299 25.849 86.9557 30.1409C86.9557 34.6562 87.7783 37.8166 89.4235 39.622C91.0687 41.4274 93.9201 42.3301 97.9777 42.3301C101.869 42.3301 104.673 41.3761 106.388 39.4682C108.103 37.5602 108.974 34.4475 109 30.1299C109 25.6329 108.179 22.4891 106.537 20.6983ZM102.946 33.228C102.882 33.9037 102.706 34.5643 102.426 35.1836C102.126 35.7885 101.606 36.2578 100.971 36.4964C100.004 36.7981 98.9902 36.9264 97.9777 36.8754C96.9543 36.9239 95.9302 36.7957 94.9511 36.4964C94.3307 36.2492 93.8256 35.7811 93.5346 35.1836C93.2547 34.5621 93.0682 33.9033 92.9813 33.228C92.7821 31.1637 92.7821 29.0852 92.9813 27.0209C93.0641 26.3324 93.2506 25.6603 93.5346 25.0269C93.6638 24.7214 93.8525 24.4444 94.0899 24.2115C94.3273 23.9787 94.6087 23.7947 94.9179 23.6701C95.9029 23.344 96.9408 23.2042 97.9777 23.2581C99.0038 23.2014 100.031 23.3413 101.004 23.6701C101.321 23.7904 101.609 23.9725 101.854 24.2055C102.098 24.4386 102.293 24.7178 102.426 25.0269C102.71 25.6583 102.886 26.3321 102.946 27.0209C103.197 29.0824 103.197 31.1665 102.946 33.228Z" fill="#FF6600"/>
</g>
<defs>
<clipPath id="clip0_217_3164">
<rect width="40.5311" height="50.0448" fill="white"/>
</clipPath>
<clipPath id="clip1_217_3164">
<rect width="62.7896" height="24.3398" fill="white" transform="translate(46.21 17.9902)"/>
</clipPath>
</defs>
</svg>
